<svg xmlns="http://www.w3.org/2000/svg" version="1.1" xmlns:xlink="http://www.w3.org/1999/xlink" xmlns:svgjs="http://svgjs.com/svgjs" width="1440" height="560" preserveAspectRatio="none" viewBox="0 0 1440 560"><g mask="url(&quot;#SvgjsMask2398&quot;)" fill="none"><rect width="1440" height="560" x="0" y="0" fill="rgba(15, 23, 42, 1)"></rect><use xlink:href="#SvgjsG2405" transform="translate(0, 0)" fill="rgba(44, 67, 141, 1)"></use><use xlink:href="#SvgjsG2405" transform="translate(860, 0)" fill="rgba(44, 67, 141, 1)"></use></g><defs><mask id="SvgjsMask2398"><rect width="1440" height="560" fill="#ffffff"></rect></mask><g id="SvgjsG2399"><path d="M16 14.068H0V2h16v12.068z m-14.107-1.117h12.214L10.088 8.837l-0.761 0.766c-0.33 0.329-0.801 0.518-1.297 0.517l-0.008 0c-0.498-0.002-0.971-0.195-1.299-0.529l-0.773-0.783-4.057 4.144zM1.116 3.916v8.233L5.165 8.014 1.116 3.916zM10.874 8.045l4.01 4.104V4.008l-4.01 4.037zM1.896 3.117l5.622 5.691c0.122 0.124 0.307 0.195 0.508 0.195h0.003c0.198 0 0.388-0.07 0.506-0.189L14.196 3.116H1.896z"></path></g><g id="SvgjsG2400"><path d="M15.769 13.134v-0.004s-3.022-3.019-3.024-3.02a0.605 0.605 0 0 0-0.858 0.002L10.496 11.509c-0.541 0.541-1.238 0.061-2.577-1.031-0.886-0.722-1.905-1.693-2.788-2.788-0.62-0.768-1.168-1.575-0.602-2.141 0.001-0.001 1.397-1.393 1.398-1.395l0.001-0.003c0.251-0.25 0.226-0.634-0.003-0.862v-0.004L2.813 0.177c-0.24-0.239-0.623-0.234-0.858 0.002L0.553 1.58C-0.024 2.303-1.307 5.747 4.194 11.385c5.795 5.94 9.534 4.669 10.177 3.999 0 0 1.4-1.383 1.4-1.384l0.001-0.003c0.251-0.251 0.225-0.635-0.002-0.864z"></path></g><g id="SvgjsG2401"><path d="M15.819 2.872L8 9.063 0.182 2.872z m0 8.863L11.116 8l4.703-3.734zM0.161 4.266l4.702 3.734L0.161 11.735z"></path><path d="M10.255 8.663L8.011 10.434 5.766 8.663 0.182 13.068h15.656z"></path></g><g id="SvgjsG2402"><path d="M1.316 13.81h14.019V3.175H1.316v10.635z m12.302-9.643L9.143 8.635c-0.457 0.459-1.269 0.448-1.735-0.018l-4.444-4.45h10.648z m-11.31 0.693l3.626 3.638-3.637 3.644 0.007-7.278z m0.654 7.97l3.641-3.635 0.156 0.149c0.86 0.818 2.228 0.818 3.049 0l0.156-0.156 3.663 3.644h-10.667z m11.353-0.693L10.677 8.501 14.311 4.862V12.142z" fill-rule="evenodd"></path></g><g id="SvgjsG2403"><path d="M12.856 11.744c1.338 0 2.427-1.084 2.426-2.424 0-1.343-1.088-2.429-2.426-2.429-1.345 0-2.429 1.086-2.429 2.429 0 1.34 1.084 2.424 2.429 2.424m-9.684 0c1.338 0 2.429-1.084 2.429-2.424 0-1.343-1.09-2.429-2.429-2.429-1.342 0-2.429 1.086-2.428 2.429 0 1.34 1.086 2.424 2.428 2.424M9.832 6.912H6.203v2.42H9.832V6.912zM12.231 4.345h-8.397v1.567h8.397V4.346z m0.969 1.565H16v6.602H0v-6.602h2.866l0.005-1.422c0-0.534 0.429-0.968 0.963-0.968H12.229c0.53 0 0.963 0.433 0.963 0.968l0.009 1.422z"></path></g><g id="SvgjsG2404"><path d="M3.755 2.315h2.494v11.128h-2.494zM13.507 0.537H16v11.261h-2.493z"></path><path d="M4.451 5.556l-0.696-3.24L16 0v3.167z"></path><path d="M0 13.443a3.124 2.606 0 1 0 6.249 0 3.124 2.606 0 1 0-6.249 0"></path><path d="M9.751 11.798a3.124 2.606 0 1 0 6.249 0 3.124 2.606 0 1 0-6.249 0"></path></g><g id="SvgjsG2405"><use xlink:href="#SvgjsG2399" transform="translate(0, 0) scale(2)" fill="rgba(44, 67, 141, 1)"></use><use xlink:href="#SvgjsG2400" transform="translate(0, 86) scale(2)" fill="rgba(44, 67, 141, 1)"></use><use xlink:href="#SvgjsG2401" transform="translate(0, 172) scale(2)" fill="rgba(44, 67, 141, 1)"></use><use xlink:href="#SvgjsG2402" transform="translate(0, 258) scale(2)" fill="rgba(44, 67, 141, 1)"></use><use xlink:href="#SvgjsG2403" transform="translate(0, 344) scale(2)" fill="rgba(44, 67, 141, 1)"></use><use xlink:href="#SvgjsG2404" transform="translate(0, 430) scale(2)" fill="rgba(44, 67, 141, 1)"></use><use xlink:href="#SvgjsG2399" transform="translate(0, 516) scale(2)" fill="rgba(44, 67, 141, 1)"></use><use xlink:href="#SvgjsG2400" transform="translate(86, 0) scale(2)" fill="rgba(44, 67, 141, 1)"></use><use xlink:href="#SvgjsG2401" transform="translate(86, 86) scale(2)" fill="rgba(44, 67, 141, 1)"></use><use xlink:href="#SvgjsG2402" transform="translate(86, 172) scale(2)" fill="rgba(44, 67, 141, 1)"></use><use xlink:href="#SvgjsG2403" transform="translate(86, 258) scale(2)" fill="rgba(44, 67, 141, 1)"></use><use xlink:href="#SvgjsG2404" transform="translate(86, 344) scale(2)" fill="rgba(44, 67, 141, 1)"></use><use xlink:href="#SvgjsG2399" transform="translate(86, 430) scale(2)" fill="rgba(44, 67, 141, 1)"></use><use xlink:href="#SvgjsG2400" transform="translate(86, 516) scale(2)" fill="rgba(44, 67, 141, 1)"></use><use xlink:href="#SvgjsG2401" transform="translate(172, 0) scale(2)" fill="rgba(44, 67, 141, 1)"></use><use xlink:href="#SvgjsG2402" transform="translate(172, 86) scale(2)" fill="rgba(44, 67, 141, 1)"></use><use xlink:href="#SvgjsG2403" transform="translate(172, 172) scale(2)" fill="rgba(44, 67, 141, 1)"></use><use xlink:href="#SvgjsG2404" transform="translate(172, 258) scale(2)" fill="rgba(44, 67, 141, 1)"></use><use xlink:href="#SvgjsG2399" transform="translate(172, 344) scale(2)" fill="rgba(44, 67, 141, 1)"></use><use xlink:href="#SvgjsG2400" transform="translate(172, 430) scale(2)" fill="rgba(44, 67, 141, 1)"></use><use xlink:href="#SvgjsG2401" transform="translate(172, 516) scale(2)" fill="rgba(44, 67, 141, 1)"></use><use xlink:href="#SvgjsG2402" transform="translate(258, 0) scale(2)" fill="rgba(44, 67, 141, 1)"></use><use xlink:href="#SvgjsG2403" transform="translate(258, 86) scale(2)" fill="rgba(44, 67, 141, 1)"></use><use xlink:href="#SvgjsG2404" transform="translate(258, 172) scale(2)" fill="rgba(44, 67, 141, 1)"></use><use xlink:href="#SvgjsG2399" transform="translate(258, 258) scale(2)" fill="rgba(44, 67, 141, 1)"></use><use xlink:href="#SvgjsG2400" transform="translate(258, 344) scale(2)" fill="rgba(44, 67, 141, 1)"></use><use xlink:href="#SvgjsG2401" transform="translate(258, 430) scale(2)" fill="rgba(44, 67, 141, 1)"></use><use xlink:href="#SvgjsG2402" transform="translate(258, 516) scale(2)" fill="rgba(44, 67, 141, 1)"></use><use xlink:href="#SvgjsG2403" transform="translate(344, 0) scale(2)" fill="rgba(44, 67, 141, 1)"></use><use xlink:href="#SvgjsG2404" transform="translate(344, 86) scale(2)" fill="rgba(44, 67, 141, 1)"></use><use xlink:href="#SvgjsG2399" transform="translate(344, 172) scale(2)" fill="rgba(44, 67, 141, 1)"></use><use xlink:href="#SvgjsG2400" transform="translate(344, 258) scale(2)" fill="rgba(44, 67, 141, 1)"></use><use xlink:href="#SvgjsG2401" transform="translate(344, 344) scale(2)" fill="rgba(44, 67, 141, 1)"></use><use xlink:href="#SvgjsG2402" transform="translate(344, 430) scale(2)" fill="rgba(44, 67, 141, 1)"></use><use xlink:href="#SvgjsG2403" transform="translate(344, 516) scale(2)" fill="rgba(44, 67, 141, 1)"></use><use xlink:href="#SvgjsG2404" transform="translate(430, 0) scale(2)" fill="rgba(44, 67, 141, 1)"></use><use xlink:href="#SvgjsG2399" transform="translate(430, 86) scale(2)" fill="rgba(44, 67, 141, 1)"></use><use xlink:href="#SvgjsG2400" transform="translate(430, 172) scale(2)" fill="rgba(44, 67, 141, 1)"></use><use xlink:href="#SvgjsG2401" transform="translate(430, 258) scale(2)" fill="rgba(44, 67, 141, 1)"></use><use xlink:href="#SvgjsG2402" transform="translate(430, 344) scale(2)" fill="rgba(44, 67, 141, 1)"></use><use xlink:href="#SvgjsG2403" transform="translate(430, 430) scale(2)" fill="rgba(44, 67, 141, 1)"></use><use xlink:href="#SvgjsG2404" transform="translate(430, 516) scale(2)" fill="rgba(44, 67, 141, 1)"></use><use xlink:href="#SvgjsG2399" transform="translate(516, 0) scale(2)" fill="rgba(44, 67, 141, 1)"></use><use xlink:href="#SvgjsG2400" transform="translate(516, 86) scale(2)" fill="rgba(44, 67, 141, 1)"></use><use xlink:href="#SvgjsG2401" transform="translate(516, 172) scale(2)" fill="rgba(44, 67, 141, 1)"></use><use xlink:href="#SvgjsG2402" transform="translate(516, 258) scale(2)" fill="rgba(44, 67, 141, 1)"></use><use xlink:href="#SvgjsG2403" transform="translate(516, 344) scale(2)" fill="rgba(44, 67, 141, 1)"></use><use xlink:href="#SvgjsG2404" transform="translate(516, 430) scale(2)" fill="rgba(44, 67, 141, 1)"></use><use xlink:href="#SvgjsG2399" transform="translate(516, 516) scale(2)" fill="rgba(44, 67, 141, 1)"></use><use xlink:href="#SvgjsG2400" transform="translate(602, 0) scale(2)" fill="rgba(44, 67, 141, 1)"></use><use xlink:href="#SvgjsG2401" transform="translate(602, 86) scale(2)" fill="rgba(44, 67, 141, 1)"></use><use xlink:href="#SvgjsG2402" transform="translate(602, 172) scale(2)" fill="rgba(44, 67, 141, 1)"></use><use xlink:href="#SvgjsG2403" transform="translate(602, 258) scale(2)" fill="rgba(44, 67, 141, 1)"></use><use xlink:href="#SvgjsG2404" transform="translate(602, 344) scale(2)" fill="rgba(44, 67, 141, 1)"></use><use xlink:href="#SvgjsG2399" transform="translate(602, 430) scale(2)" fill="rgba(44, 67, 141, 1)"></use><use xlink:href="#SvgjsG2400" transform="translate(602, 516) scale(2)" fill="rgba(44, 67, 141, 1)"></use><use xlink:href="#SvgjsG2401" transform="translate(688, 0) scale(2)" fill="rgba(44, 67, 141, 1)"></use><use xlink:href="#SvgjsG2402" transform="translate(688, 86) scale(2)" fill="rgba(44, 67, 141, 1)"></use><use xlink:href="#SvgjsG2403" transform="translate(688, 172) scale(2)" fill="rgba(44, 67, 141, 1)"></use><use xlink:href="#SvgjsG2404" transform="translate(688, 258) scale(2)" fill="rgba(44, 67, 141, 1)"></use><use xlink:href="#SvgjsG2399" transform="translate(688, 344) scale(2)" fill="rgba(44, 67, 141, 1)"></use><use xlink:href="#SvgjsG2400" transform="translate(688, 430) scale(2)" fill="rgba(44, 67, 141, 1)"></use><use xlink:href="#SvgjsG2401" transform="translate(688, 516) scale(2)" fill="rgba(44, 67, 141, 1)"></use><use xlink:href="#SvgjsG2402" transform="translate(774, 0) scale(2)" fill="rgba(44, 67, 141, 1)"></use><use xlink:href="#SvgjsG2403" transform="translate(774, 86) scale(2)" fill="rgba(44, 67, 141, 1)"></use><use xlink:href="#SvgjsG2404" transform="translate(774, 172) scale(2)" fill="rgba(44, 67, 141, 1)"></use><use xlink:href="#SvgjsG2399" transform="translate(774, 258) scale(2)" fill="rgba(44, 67, 141, 1)"></use><use xlink:href="#SvgjsG2400" transform="translate(774, 344) scale(2)" fill="rgba(44, 67, 141, 1)"></use><use xlink:href="#SvgjsG2401" transform="translate(774, 430) scale(2)" fill="rgba(44, 67, 141, 1)"></use><use xlink:href="#SvgjsG2402" transform="translate(774, 516) scale(2)" fill="rgba(44, 67, 141, 1)"></use></g></defs></svg>