<svg version="1.1" xmlns="http://www.w3.org/2000/svg" xmlns:xlink="http://www.w3.org/1999/xlink" width="392.928466796875" height="108.70012664794922"><defs></defs><g transform="translate(-191.5862579345703,72.59822845458984)"><rect fill="rgb(255,255,255)" stroke="none" x="0" y="0" width="392.928466796875" height="108.70012664794922" fill-opacity="0" transform="translate(191.5862579345703,-72.59822845458984)"></rect><g transform="translate(196.46459290944773,54.350719794568306) rotate(-6,0,0) translate(-196.46459290944773,-54.350719794568306) matrix(1,0,0,1,196.46459290944773,54.350719794568306)"><path fill="rgb(255,255,255)" fill-opacity="1" d="M54.76-74.95L54.76-74.95Q54.76-73.31 54.15-71.79Q53.54-70.26 53.26-68.67L53.26-68.67Q52.23-67.31 51.34-65.86Q50.45-64.41 49.51-62.95Q48.57-61.50 47.54-60.16Q46.51-58.83 45.20-57.75L45.20-57.75Q45.25-57.70 45.25-57.56L45.25-57.56Q45.25-57.28 44.99-57.12Q44.73-56.95 44.82-56.72L44.82-56.72Q43.65-55.50 42.53-54.33Q41.40-53.16 40.46-51.70L40.46-51.70Q39.43-51.19 38.78-50.01L38.78-50.01Q38.50-50.01 38.36-49.90Q38.21-49.78 37.98-49.69L37.98-49.69Q36.48-47.86 34.84-46.22Q33.20-44.58 31.32-43.22L31.32-43.22Q30.62-42.70 29.92-42.28Q29.21-41.86 28.56-41.39L28.56-41.39Q28.14-41.11 27.74-40.73Q27.34-40.36 26.92-40.03L26.92-40.03Q25.56-38.86 24.25-38.09Q22.93-37.31 21.15-37.03L21.15-37.03Q21.01-36.51 21.01-35.91L21.01-35.91L21.01-34.78Q21.01-34.22 20.96-33.63Q20.92-33.05 20.64-32.53L20.64-32.53L20.64-32.39Q20.64-31.92 20.87-31.48Q21.11-31.03 21.11-30.56L21.11-30.56Q21.11-30.23 20.78-30.00L20.78-30.00L22.00-30.00Q22.00-29.34 22.39-28.87Q22.79-28.41 22.79-28.17L22.79-28.17Q22.79-27.37 22.63-26.41Q22.46-25.45 21.67-25.12L21.67-25.12L21.67-24.84Q21.67-24.37 21.57-23.93Q21.48-23.48 21.15-23.06L21.15-23.06Q20.87-23.06 20.61-23.04Q20.36-23.01 20.12-23.01L20.12-23.01Q18.15-23.01 16.61-23.95L16.61-23.95Q16.09-25.17 15.93-26.46Q15.76-27.75 15.76-29.06L15.76-29.06Q15.76-31.64 16.14-34.17Q16.51-36.70 16.75-39.23L16.75-39.23L17.45-40.59Q17.54-41.91 17.78-43.24Q18.01-44.58 18.25-45.89Q18.48-47.20 18.64-48.51Q18.81-49.83 18.76-51.14L18.76-51.14Q19.14-51.94 19.30-52.83Q19.46-53.72 19.46-54.56L19.46-54.56Q19.46-55.03 19.42-55.50Q19.37-55.97 19.14-56.39L19.14-56.39Q19.42-56.58 19.51-56.86Q19.61-57.14 19.79-57.37L19.79-57.37Q19.93-59.20 20.03-61.01Q20.12-62.81 20.12-64.59L20.12-64.59Q20.12-65.58 20.07-66.54Q20.03-67.50 19.93-68.48L19.93-68.48Q19.89-68.86 19.77-69.37Q19.65-69.89 19.65-70.17L19.65-70.17Q19.65-70.55 19.70-70.94Q19.75-71.34 19.75-71.76L19.75-71.76Q19.75-72.23 19.65-72.68Q19.56-73.12 19.32-73.50L19.32-73.50Q17.07-72.84 15.29-71.74Q13.51-70.64 11.68-69.28L11.68-69.28Q10.93-68.76 10.04-68.06Q9.15-67.36 8.36-66.98L8.36-66.98Q8.21-66.89 8.00-66.87Q7.79-66.84 7.65-66.84L7.65-66.84Q7.14-66.84 6.71-66.91Q6.29-66.98 5.87-66.98L5.87-66.98Q5.21-67.64 4.32-68.01L4.32-68.01Q4.18-68.58 4.18-69.23L4.18-69.23Q4.18-69.89 4.30-70.50Q4.42-71.11 4.65-71.72L4.65-71.72Q5.21-71.91 5.85-72.14Q6.48-72.37 7.07-72.68Q7.65-72.98 8.12-73.38Q8.59-73.78 8.87-74.39L8.87-74.39Q9.15-74.25 9.39-74.25L9.39-74.25Q9.62-74.25 9.81-74.30Q10.00-74.34 10.23-74.39L10.23-74.39Q11.07-74.91 11.94-75.47Q12.81-76.03 13.75-76.41L13.75-76.41Q14.03-76.50 14.07-76.64Q14.12-76.78 14.07-77.06L14.07-77.06Q15.15-77.39 16.32-77.84Q17.50-78.28 18.29-79.08L18.29-79.08L19.14-79.08Q19.84-79.59 20.64-79.92Q21.43-80.25 22.25-80.55Q23.07-80.86 23.87-81.21Q24.67-81.56 25.37-82.12L25.37-82.12Q25.65-82.22 25.84-82.22L25.84-82.22Q26.07-82.22 26.36-82.12L26.36-82.12Q26.82-82.36 27.15-82.69L27.15-82.69L27.90-83.44Q28.65-83.44 29.26-83.58Q29.87-83.72 30.43-83.95Q31.00-84.19 31.53-84.49Q32.07-84.80 32.73-85.12L32.73-85.12Q33.01-85.03 33.15-84.91Q33.29-84.80 33.62-84.80L33.62-84.80Q34.09-85.12 34.63-85.29Q35.17-85.45 35.73-85.55Q36.29-85.64 36.83-85.78Q37.37-85.92 37.79-86.30L37.79-86.30Q39.29-86.30 40.82-86.37Q42.34-86.44 43.84-86.44L43.84-86.44Q46.00-86.44 48.22-86.11Q50.45-85.78 52.23-84.47L52.23-84.47Q52.93-82.78 54.25-81.61L54.25-81.61Q54.34-81.09 54.46-80.65Q54.57-80.20 54.76-79.78L54.76-79.78Q54.43-79.08 54.43-78.23L54.43-78.23Q54.43-77.39 54.60-76.57Q54.76-75.75 54.76-74.95ZM50.40-76.08L50.40-76.08Q50.17-76.50 50.10-77.04Q50.03-77.58 50.07-78.09L50.07-78.09Q49.46-78.56 49.14-79.31Q48.81-80.06 48.20-80.44L48.20-80.44Q47.78-80.67 47.00-80.72Q46.23-80.76 45.71-80.91L45.71-80.91Q45.11-81.09 44.89-81.28Q44.68-81.47 44.03-81.47L44.03-81.47Q43.46-81.47 42.90-81.35Q42.34-81.23 41.78-81.23L41.78-81.23Q41.31-81.23 40.89-81.42Q40.46-81.61 40.00-81.61L40.00-81.61Q39.48-81.61 39.03-81.28Q38.59-80.95 37.98-81.09L37.98-81.09Q37.70-80.86 37.68-80.72Q37.65-80.58 37.61-80.51Q37.56-80.44 37.37-80.44L37.37-80.44L36.71-80.44Q35.73-80.44 34.72-80.16Q33.71-79.87 32.92-79.22L32.92-79.22Q32.78-79.26 32.66-79.29Q32.54-79.31 32.40-79.31L32.40-79.31Q31.61-79.31 30.88-78.87Q30.15-78.42 29.26-78.42L29.26-78.42Q28.70-77.86 27.90-77.53Q27.11-77.20 26.28-76.90Q25.46-76.59 24.76-76.19Q24.06-75.80 23.68-75.05L23.68-75.05Q23.64-74.67 23.92-74.58Q24.20-74.48 24.20-74.11L24.20-74.11Q24.20-73.78 24.08-73.31Q23.96-72.84 23.96-72.37L23.96-72.37Q23.96-71.30 24.20-70.26Q24.43-69.23 24.67-68.16L24.67-68.16Q24.43-68.01 24.34-67.73Q24.25-67.45 24.01-67.31L24.01-67.31Q24.67-65.34 24.67-63.28L24.67-63.28Q24.67-61.64 24.32-60.07Q23.96-58.50 23.82-56.86L23.82-56.86L23.82-56.81Q23.82-56.53 24.01-56.44Q24.20-56.34 24.20-56.11L24.20-56.11Q24.20-55.97 24.15-55.87L24.15-55.87Q23.64-52.69 23.14-49.50Q22.65-46.31 22.32-43.08L22.32-43.08L22.70-43.08Q23.92-43.08 24.88-43.80Q25.84-44.53 26.50-45.42L26.50-45.42L27.25-45.42Q30.62-48.37 33.74-51.51Q36.86-54.66 39.67-58.26L39.67-58.26Q40.04-58.26 40.18-58.45Q40.32-58.64 40.65-58.73L40.65-58.73Q41.64-60.09 42.71-61.43Q43.79-62.76 45.06-63.98L45.06-63.98Q45.11-64.45 45.32-64.83Q45.53-65.20 45.76-65.53Q46.00-65.86 46.18-66.23Q46.37-66.61 46.37-67.12L46.37-67.12Q46.61-67.22 46.89-67.34Q47.17-67.45 47.40-67.69L47.40-67.69Q47.50-68.16 47.73-68.53Q47.96-68.91 47.96-69.37L47.96-69.37Q47.96-69.56 47.87-69.84L47.87-69.84Q48.62-70.17 49.04-70.92Q49.46-71.67 49.70-72.59Q49.93-73.50 50.05-74.44Q50.17-75.37 50.40-76.08ZM85.00-35.95L85.00-35.95Q84.86-35.30 84.41-34.90Q83.96-34.50 83.36-34.26Q82.75-34.03 82.11-33.96Q81.48-33.89 80.96-33.89L80.96-33.89Q80.73-33.89 80.52-33.91Q80.31-33.94 80.07-33.94L80.07-33.94Q79.84-33.94 79.84-33.70Q79.84-33.47 79.61-33.37L79.61-33.37Q79.37-33.47 79.14-33.51Q78.90-33.56 78.67-33.56L78.67-33.56Q78.34-33.56 78.03-33.51Q77.73-33.47 77.45-33.47L77.45-33.47Q77.07-33.47 76.91-33.56Q76.75-33.66 76.63-33.77Q76.51-33.89 76.39-34.03Q76.28-34.17 76.04-34.26L76.04-34.26Q75.71-34.41 75.50-34.31Q75.29-34.22 74.87-34.59L74.87-34.59Q74.31-35.06 73.91-35.74Q73.51-36.42 73.14-37.17Q72.76-37.92 72.34-38.67Q71.92-39.42 71.36-39.98L71.36-39.98L70.98-39.98Q70.14-39.98 69.81-39.28L69.81-39.28Q69.57-39.42 69.34-39.63Q69.11-39.84 68.82-39.98L68.82-39.98Q67.75-39.66 66.57-39.42Q65.40-39.19 64.23-39.19L64.23-39.19L63.57-39.19Q63.29-39.19 62.96-39.28L62.96-39.28Q62.50-39.09 62.12-38.84Q61.75-38.58 61.28-38.58L61.28-38.58Q61.00-38.58 60.62-38.76L60.62-38.76Q60.34-38.76 60.36-38.53Q60.39-38.30 60.06-38.30L60.06-38.30L59.64-38.30Q58.98-38.30 58.35-38.25Q57.71-38.20 57.06-38.20L57.06-38.20Q56.17-38.20 55.23-38.44L55.23-38.44Q55.00-38.30 54.71-38.30L54.71-38.30Q54.53-38.20 54.43-37.99Q54.34-37.78 54.25-37.62Q54.15-37.45 53.99-37.34Q53.82-37.22 53.54-37.26L53.54-37.26Q53.45-36.70 53.07-36.37Q52.70-36.05 52.70-35.39L52.70-35.39Q52.18-35.11 51.86-34.69Q51.53-34.26 51.20-33.80Q50.87-33.33 50.52-32.91Q50.17-32.48 49.65-32.25L49.65-32.25Q49.42-31.97 49.51-31.36L49.51-31.36Q49.00-30.94 48.25-30.61Q47.50-30.28 46.84-30.28L46.84-30.28Q45.48-30.28 44.96-31.73L44.96-31.73Q44.96-32.20 45.03-32.74Q45.11-33.28 45.25-33.77Q45.39-34.26 45.67-34.66Q45.95-35.06 46.46-35.25L46.46-35.25Q46.46-35.67 46.18-35.84Q45.90-36.00 45.95-36.42L45.95-36.42Q47.21-37.03 48.15-38.01Q49.09-39.00 49.86-40.10Q50.64-41.20 51.43-42.33Q52.23-43.45 53.21-44.34L53.21-44.34L53.21-45.33Q54.62-46.83 55.04-48.70L55.04-48.70Q55.56-48.80 55.72-49.17Q55.89-49.55 55.89-50.06L55.89-50.06Q56.12-50.06 56.19-50.27Q56.26-50.48 56.59-50.39L56.59-50.39Q57.01-51.51 57.53-52.45Q58.04-53.39 58.56-54.35Q59.07-55.31 59.47-56.34Q59.87-57.37 60.06-58.64L60.06-58.64Q60.71-58.69 60.78-59.27Q60.86-59.86 60.95-60.33L60.95-60.33Q61.65-60.98 62.00-61.87Q62.36-62.76 62.64-63.73Q62.92-64.69 63.27-65.65Q63.62-66.61 64.28-67.36L64.28-67.36L64.28-67.50Q64.28-67.73 64.09-67.80Q63.90-67.87 63.90-68.11L63.90-68.11Q63.95-68.16 63.95-68.20L63.95-68.20Q64.51-68.44 64.79-68.98Q65.07-69.51 65.64-69.75L65.64-69.75Q66.62-68.95 67.37-68.79Q68.12-68.62 69.34-68.53L69.34-68.53Q69.95-67.87 70.02-66.96Q70.09-66.05 70.32-65.16L70.32-65.16Q70.70-63.66 71.14-62.23Q71.59-60.80 71.82-59.30L71.82-59.30Q71.96-58.41 72.34-57.61Q72.71-56.81 72.86-55.97L72.86-55.97Q72.95-55.31 72.86-54.49Q72.76-53.67 73.04-53.06L73.04-53.06L73.37-52.31Q73.61-51.80 73.77-51.23Q73.93-50.67 74.07-50.11L74.07-50.11Q74.45-48.70 74.75-47.09Q75.06-45.47 75.71-44.16L75.71-44.16Q75.95-43.69 76.44-43.50Q76.93-43.31 77.54-43.24Q78.15-43.17 78.74-43.19Q79.32-43.22 79.75-43.22L79.75-43.22L80.21-43.22Q80.50-43.22 80.78-43.12L80.78-43.12Q80.96-42.75 80.96-42.47L80.96-42.47Q80.96-41.91 80.59-41.58Q80.21-41.25 80.21-40.83L80.21-40.83Q80.21-40.59 80.40-40.31L80.40-40.31Q80.21-40.36 79.84-40.36L79.84-40.36Q78.76-40.36 77.73-39.98L77.73-39.98Q78.11-39.19 78.74-38.65Q79.37-38.11 80.07-37.64L80.07-37.64Q80.54-38.01 81.06-38.01L81.06-38.01Q81.62-38.01 82.11-37.76Q82.61-37.50 83.17-37.50L83.17-37.50Q83.59-37.50 83.78-37.64L83.78-37.64Q84.15-37.22 84.39-36.77Q84.62-36.33 85.00-35.95ZM70.32-43.45L70.32-43.45Q70.23-44.25 70.02-44.60Q69.81-44.95 69.67-45.47L69.67-45.47Q69.48-46.12 69.41-46.87Q69.34-47.62 69.20-48.33L69.20-48.33Q68.87-49.92 68.47-51.51Q68.07-53.11 67.46-54.61L67.46-54.61Q67.65-54.89 67.65-55.12L67.65-55.12L67.65-55.26Q67.23-55.73 67.04-56.41Q66.86-57.09 66.69-57.77Q66.53-58.45 66.27-59.04Q66.01-59.62 65.45-60.00L65.45-60.00Q65.31-59.72 65.31-59.34L65.31-59.34Q65.31-59.01 65.38-58.73Q65.45-58.45 65.45-58.12L65.45-58.12Q64.98-57.89 64.77-57.40Q64.56-56.91 64.09-56.62L64.09-56.62Q63.71-55.12 63.01-53.79Q62.31-52.45 61.53-51.14Q60.76-49.83 60.06-48.49Q59.36-47.16 58.93-45.70L58.93-45.70Q58.32-45.28 58.11-44.62Q57.90-43.97 57.90-43.31L57.90-43.31Q58.32-43.08 58.86-43.05Q59.40-43.03 59.92-43.03Q60.43-43.03 60.90-42.94Q61.37-42.84 61.75-42.47L61.75-42.47Q62.36-42.66 63.08-42.73Q63.81-42.80 64.28-43.12L64.28-43.12Q65.21-42.80 66.29-42.80L66.29-42.80Q66.86-42.80 67.39-42.89Q67.93-42.98 68.45-43.12L68.45-43.12Q68.87-43.03 69.11-42.82Q69.34-42.61 69.81-42.66L69.81-42.66Q70.04-42.84 70.09-43.05Q70.14-43.26 70.32-43.45ZM143.64-40.69L143.64-40.69Q143.54-39.98 143.14-39.61Q142.75-39.23 142.23-38.91L142.23-38.91Q142.00-38.95 141.78-38.98Q141.57-39.00 141.34-39.00L141.34-39.00Q139.89-39.05 138.60-38.62Q137.31-38.20 135.95-38.01L135.95-38.01Q135.48-37.92 135.08-37.94Q134.68-37.97 134.26-37.87L134.26-37.87Q132.76-37.64 131.07-37.50Q129.39-37.36 127.70-37.15Q126.01-36.94 124.39-36.63Q122.78-36.33 121.37-35.76L121.37-35.76Q121.23-35.86 121.09-35.98Q120.95-36.09 120.76-36.09L120.76-36.09Q120.29-36.09 119.87-35.95Q119.45-35.81 119.03-35.86L119.03-35.86Q118.56-35.58 118.02-35.46Q117.48-35.34 116.94-35.27Q116.40-35.20 115.89-35.06Q115.37-34.92 114.90-34.55L114.90-34.55Q114.53-34.73 113.99-34.76Q113.45-34.78 113.26-35.11L113.26-35.11Q112.18-34.59 110.99-34.45Q109.79-34.31 108.57-34.36L108.57-34.36Q107.78-34.41 106.75-34.59Q105.71-34.78 104.68-35.13Q103.65-35.48 102.76-35.98Q101.87-36.47 101.40-37.17L101.40-37.17Q101.07-37.64 100.93-38.20Q100.79-38.76 100.28-39.05L100.28-39.05Q100.42-40.12 100.61-41.16Q100.79-42.19 100.98-43.26L100.98-43.26Q101.92-44.06 102.76-44.95Q103.61-45.84 104.36-46.83L104.36-46.83Q105.25-47.25 106.02-47.86Q106.79-48.47 107.57-49.10Q108.34-49.73 109.11-50.34Q109.89-50.95 110.78-51.42L110.78-51.42Q110.92-51.75 111.18-51.96Q111.43-52.17 111.71-52.38Q112.00-52.59 112.23-52.85Q112.46-53.11 112.56-53.48L112.56-53.48Q114.20-54.47 115.42-55.97Q116.64-57.47 117.01-59.34L117.01-59.34Q116.21-60.00 115.21-60.21Q114.20-60.42 113.12-60.51L113.12-60.51Q112.18-60.56 111.18-60.51Q110.17-60.47 109.14-60.56L109.14-60.56Q108.11-60.23 107.00-60.14Q105.90-60.05 104.82-59.98Q103.75-59.91 102.69-59.69Q101.64-59.48 100.65-58.92L100.65-58.92Q100.46-58.92 100.30-58.97Q100.14-59.01 99.95-59.01L99.95-59.01Q98.45-59.06 97.14-58.43Q95.82-57.80 94.56-57.19L94.56-57.19Q94.46-57.00 94.46-56.91L94.46-56.91Q94.46-56.62 94.58-56.37Q94.70-56.11 94.70-55.83L94.70-55.83Q94.65-55.78 94.65-55.73Q94.65-55.69 94.61-55.64L94.61-55.64Q94.56-55.41 94.49-55.22Q94.42-55.03 94.32-54.80L94.32-54.80Q93.81-53.30 93.76-51.84L93.76-51.84Q93.71-50.62 93.76-49.45Q93.81-48.28 93.76-47.06L93.76-47.06Q93.67-45.56 93.29-44.25L93.29-44.25Q93.53-43.12 93.71-41.88Q93.90-40.64 94.18-39.42Q94.46-38.20 94.86-37.05Q95.26-35.91 95.92-34.87L95.92-34.87Q95.87-34.78 95.96-34.73Q96.06-34.69 96.15-34.69L96.15-34.69L96.53-34.69Q96.76-34.69 96.71-34.50L96.71-34.50Q96.81-34.36 96.86-34.24Q96.90-34.12 97.04-34.03L97.04-34.03Q97.14-33.89 97.04-33.66L97.04-33.66Q97.00-32.72 96.57-31.92Q96.15-31.12 96.06-30.19L96.06-30.19Q95.50-30.05 95.03-30.05L95.03-30.05Q94.23-30.09 93.62-30.49Q93.01-30.89 92.50-31.45Q91.98-32.01 91.51-32.60Q91.04-33.19 90.48-33.61L90.48-33.61Q90.15-34.92 89.85-36.51Q89.54-38.11 88.84-39.23L88.84-39.23Q89.03-39.66 89.03-40.26L89.03-40.26Q89.07-41.20 88.86-42.12Q88.65-43.03 88.75-43.97L88.75-43.97Q88.75-44.48 88.86-45.00Q88.98-45.51 89.03-46.03L89.03-46.03Q89.07-46.83 88.86-47.58Q88.65-48.33 88.70-49.12L88.70-49.12Q88.75-49.50 88.86-49.85Q88.98-50.20 89.21-50.48L89.21-50.48Q88.98-51.05 89.07-51.56L89.07-51.56Q89.12-52.36 89.26-53.06Q89.40-53.76 89.45-54.47L89.45-54.47Q89.45-54.84 89.40-55.19Q89.36-55.55 89.26-55.87L89.26-55.87L88.84-56.01Q88.56-56.01 88.30-55.87Q88.04-55.73 87.86-55.55Q87.67-55.36 87.53-55.24Q87.39-55.12 87.25-55.12L87.25-55.12Q87.15-55.12 87.03-55.15Q86.92-55.17 86.82-55.17L86.82-55.17Q86.73-55.17 86.47-54.98Q86.21-54.80 85.86-54.59Q85.51-54.37 85.18-54.16Q84.86-53.95 84.67-53.91L84.67-53.91Q84.15-54.00 83.85-54.26Q83.54-54.51 83.28-54.77Q83.03-55.03 82.75-55.24Q82.46-55.45 82.04-55.41L82.04-55.41Q81.90-55.69 81.88-56.01Q81.86-56.34 81.90-56.67L81.90-56.67L81.90-57.42Q82.23-58.03 82.77-58.43Q83.31-58.83 83.92-59.11L83.92-59.11L85.14-59.67Q85.75-59.95 86.26-60.37L86.26-60.37L86.68-60.37Q87.53-60.33 88.16-60.70Q88.79-61.08 89.36-61.57Q89.92-62.06 90.50-62.58Q91.09-63.09 91.79-63.37L91.79-63.37Q92.31-63.14 92.87-62.98Q93.43-62.81 94.04-62.76L94.04-62.76Q94.65-62.76 95.31-62.95Q95.96-63.14 96.34-63.66L96.34-63.66Q96.57-63.56 96.74-63.54Q96.90-63.51 97.14-63.51L97.14-63.51Q97.84-63.47 98.54-63.73Q99.25-63.98 99.90-64.36L99.90-64.36Q100.84-64.31 101.75-64.48Q102.67-64.64 103.58-64.83Q104.50-65.01 105.41-65.18Q106.32-65.34 107.26-65.30L107.26-65.30Q108.81-65.25 110.31-65.58Q111.81-65.91 113.36-65.81L113.36-65.81Q114.43-65.76 115.49-65.65Q116.54-65.53 117.62-65.58L117.62-65.58Q118.23-65.30 118.72-65.09Q119.21-64.87 119.96-64.97L119.96-64.97Q121.46-63.70 122.68-62.01L122.68-62.01L122.68-61.22Q122.64-60.14 122.31-59.11Q121.98-58.08 121.53-57.07Q121.09-56.06 120.57-55.10Q120.06-54.14 119.59-53.20L119.59-53.20Q116.54-50.44 113.50-47.72Q110.45-45.00 107.21-42.47L107.21-42.47Q107.12-42.00 106.96-41.62Q106.79-41.25 106.75-40.83L106.75-40.83Q106.75-40.59 106.79-40.45L106.79-40.45Q107.12-40.36 107.38-40.10Q107.64-39.84 107.54-39.42L107.54-39.42L107.96-39.42Q108.20-39.42 108.20-39.23L108.20-39.23L108.95-39.19Q110.73-39.09 112.51-39.28Q114.29-39.47 116.10-39.70Q117.90-39.94 119.68-40.15Q121.46-40.36 123.25-40.41L123.25-40.41Q123.67-40.55 124.14-40.64Q124.61-40.73 124.98-41.01L124.98-41.01L125.12-41.01Q125.45-41.01 125.61-40.83Q125.78-40.64 126.11-40.59L126.11-40.59Q126.34-40.59 126.60-40.69Q126.86-40.78 127.14-40.83L127.14-40.83Q127.79-41.01 128.52-41.06Q129.25-41.11 129.95-41.20L129.95-41.20Q132.67-41.44 135.34-41.51Q138.01-41.58 140.68-42.19L140.68-42.19Q140.92-41.86 141.34-41.74Q141.76-41.62 142.23-41.51Q142.70-41.39 143.10-41.25Q143.50-41.11 143.64-40.69ZM167.40-34.92L167.40-34.92Q167.40-34.55 167.07-34.31Q166.75-34.08 166.32-33.84L166.32-33.84L165.48-33.42Q165.06-33.23 164.92-32.91L164.92-32.91Q164.40-33.05 163.91-33.09Q163.42-33.14 162.95-33.14L162.95-33.14Q162.34-33.14 161.68-33.02Q161.03-32.91 160.65-32.39L160.65-32.39Q160.42-32.48 160.23-32.48L160.23-32.48L159.86-32.48Q159.15-32.48 158.43-32.37Q157.70-32.25 157.00-32.25L157.00-32.25Q156.62-32.25 156.27-32.30Q155.92-32.34 155.64-32.58L155.64-32.58Q155.21-32.44 154.75-32.44L154.75-32.44Q154.14-32.44 153.57-32.62Q153.01-32.81 152.47-33.07Q151.93-33.33 151.37-33.56Q150.81-33.80 150.25-33.94L150.25-33.94L149.92-34.59Q149.17-34.73 148.53-35.04Q147.90-35.34 147.29-35.72Q146.68-36.09 146.10-36.44Q145.51-36.80 144.90-36.94L144.90-36.94Q144.67-37.12 144.48-37.29Q144.29-37.45 144.20-37.78L144.20-37.78Q143.59-37.92 143.07-38.16L143.07-38.16L142.09-38.67Q141.62-38.95 141.03-39.16Q140.45-39.37 139.65-39.42L139.65-39.42Q139.37-39.84 138.86-40.22Q138.34-40.59 137.82-40.59L137.82-40.59Q137.50-40.59 137.31-40.45L137.31-40.45L137.31-40.22Q137.31-39.66 137.64-39.09Q137.96-38.53 138.48-38.30L138.48-38.30Q138.43-38.20 138.43-38.01L138.43-38.01Q138.43-37.73 138.55-37.45Q138.67-37.17 139.00-37.08L139.00-37.08Q138.81-36.56 138.53-36.02Q138.25-35.48 137.82-35.01Q137.40-34.55 136.91-34.24Q136.42-33.94 135.81-33.94L135.81-33.94Q135.62-33.84 135.55-33.66Q135.48-33.47 135.46-33.26Q135.43-33.05 135.36-32.86Q135.29-32.67 135.15-32.58L135.15-32.58Q134.96-32.53 134.64-32.53L134.64-32.53Q134.17-32.53 133.84-32.67Q133.51-32.81 133.14-33.05L133.14-33.05L133.14-33.23Q133.14-33.80 132.93-34.12Q132.71-34.45 132.46-34.76Q132.20-35.06 131.99-35.39Q131.78-35.72 131.78-36.28L131.78-36.28Q131.64-36.19 131.47-36.14Q131.31-36.09 131.26-35.95L131.26-35.95Q131.17-36.42 131.17-36.75L131.17-36.75Q131.17-37.69 131.47-38.53Q131.78-39.37 131.78-40.31L131.78-40.31L131.78-41.01Q131.78-42.09 131.73-43.12Q131.68-44.16 131.68-45.19L131.68-45.19Q131.68-46.08 131.73-46.94Q131.78-47.81 131.92-48.70L131.92-48.70Q132.43-51.80 132.78-54.87Q133.14-57.94 133.93-60.98L133.93-60.98Q133.89-61.22 133.82-61.45Q133.75-61.69 133.75-61.92L133.75-61.92Q133.75-62.11 133.79-62.16L133.79-62.16Q133.98-63.09 134.64-63.73Q135.29-64.36 136.32-64.36L136.32-64.36L136.46-64.36Q137.03-64.12 137.33-63.68Q137.64-63.23 138.29-63.33L138.29-63.33Q138.29-63.23 138.27-63.14Q138.25-63.05 138.25-62.95L138.25-62.95Q138.25-62.44 138.53-62.20Q138.81-61.97 139.18-61.69L139.18-61.69Q138.95-61.22 138.88-60.61Q138.81-60.00 138.76-59.39Q138.71-58.78 138.60-58.22Q138.48-57.66 138.15-57.28L138.15-57.28Q138.34-56.81 138.39-56.34Q138.43-55.87 138.43-55.36L138.43-55.36Q138.43-54.84 138.39-54.30Q138.34-53.76 138.34-53.20L138.34-53.20Q138.34-52.69 138.48-52.26L138.48-52.26Q139.51-52.26 139.65-53.25L139.65-53.25Q140.87-53.58 141.83-54.16Q142.79-54.75 143.68-55.41Q144.57-56.06 145.44-56.76Q146.31-57.47 147.39-57.98L147.39-57.98L147.39-58.08Q147.39-58.31 147.53-58.38Q147.67-58.45 147.57-58.78L147.57-58.78Q148.28-59.01 148.77-59.41Q149.26-59.81 149.68-60.28L149.68-60.28L150.57-61.26Q151.04-61.78 151.61-62.16L151.61-62.16Q151.98-62.95 152.28-63.84Q152.59-64.73 153.11-65.48L153.11-65.48Q154.00-65.48 155.05-65.34Q156.11-65.20 156.86-64.69L156.86-64.69Q156.76-64.31 157.18-64.17L157.18-64.17Q156.67-62.20 155.64-60.63Q154.61-59.06 152.96-57.98L152.96-57.98Q152.73-57.47 152.36-57.09Q151.98-56.72 151.61-56.37Q151.23-56.01 150.86-55.64Q150.48-55.26 150.25-54.75L150.25-54.75Q149.68-54.66 149.28-54.42Q148.89-54.19 148.53-53.88Q148.18-53.58 147.78-53.32Q147.39-53.06 146.92-52.92L146.92-52.92Q146.54-52.45 146.05-52.12Q145.56-51.80 145.07-51.49Q144.57-51.19 144.15-50.84Q143.73-50.48 143.54-49.92L143.54-49.92L142.32-49.92Q141.81-49.03 140.99-48.44Q140.17-47.86 139.32-47.34L139.32-47.34Q139.46-46.78 139.84-46.43Q140.21-46.08 140.66-45.80Q141.11-45.51 141.55-45.21Q142.00-44.91 142.32-44.48L142.32-44.48Q144.29-43.73 146.12-42.77Q147.95-41.81 149.59-40.45L149.59-40.45Q149.68-40.50 149.82-40.50L149.82-40.50Q150.20-40.50 150.43-40.29Q150.67-40.08 151.09-40.12L151.09-40.12Q151.28-39.66 151.61-39.49Q151.93-39.33 152.28-39.23Q152.64-39.14 152.96-38.95Q153.29-38.76 153.43-38.30L153.43-38.30Q154.14-38.25 154.72-38.01Q155.31-37.78 155.78-37.26L155.78-37.26L156.34-37.26Q157.84-37.26 159.25-36.98Q160.65-36.70 162.11-36.70L162.11-36.70Q162.86-36.70 163.56-36.82Q164.26-36.94 164.92-37.26L164.92-37.26Q165.15-37.12 165.43-36.98Q165.71-36.84 166.04-36.84L166.04-36.84Q166.28-36.84 166.75-36.94L166.75-36.94Q166.79-36.42 167.10-35.95Q167.40-35.48 167.40-34.92ZM190.00-62.34L190.00-62.34L190.00-62.16Q189.67-62.06 189.67-61.69L189.67-61.69Q189.15-61.45 188.59-61.34Q188.03-61.22 187.51-60.98L187.51-60.98Q187.00-61.03 186.46-61.05Q185.92-61.08 185.40-61.08L185.40-61.08Q184.00-61.08 182.59-60.98Q181.18-60.89 179.78-60.98L179.78-60.98Q179.12-60.61 178.35-60.40Q177.57-60.19 176.87-60.19L176.87-60.19Q176.31-60.19 175.89-60.33L175.89-60.33Q174.76-59.76 173.43-59.39Q172.09-59.01 170.73-58.66Q169.37-58.31 168.13-57.87Q166.89-57.42 165.95-56.62L165.95-56.62Q165.86-55.97 165.81-55.34Q165.76-54.70 165.76-54.09L165.76-54.09Q165.76-53.44 165.83-52.87Q165.90-52.31 166.14-51.75L166.14-51.75Q166.37-51.66 166.68-51.61Q166.98-51.56 167.21-51.56L167.21-51.56Q167.45-51.56 167.68-51.63Q167.92-51.70 168.01-51.94L168.01-51.94Q168.71-52.03 169.42-52.01Q170.12-51.98 170.82-51.98L170.82-51.98Q171.53-51.98 172.21-52.03Q172.89-52.08 173.54-52.26L173.54-52.26Q174.29-52.45 175.02-52.50Q175.75-52.55 176.45-52.59Q177.15-52.64 177.90-52.76Q178.65-52.87 179.45-53.25L179.45-53.25Q180.06-53.01 180.69-53.01Q181.32-53.01 181.93-52.92L181.93-52.92Q182.26-52.69 182.47-52.41Q182.68-52.12 182.68-51.75L182.68-51.75Q182.68-51.09 182.21-50.44Q181.75-49.78 181.46-49.22L181.46-49.22L180.95-49.22Q179.82-49.22 178.77-48.91Q177.71-48.61 176.66-48.21Q175.61-47.81 174.55-47.51Q173.50-47.20 172.37-47.20L172.37-47.20Q172.18-47.20 172.16-46.99Q172.14-46.78 172.04-46.69L172.04-46.69Q171.81-46.73 171.34-46.73L171.34-46.73Q170.26-46.73 169.28-46.50Q168.29-46.26 167.26-46.26L167.26-46.26Q166.98-46.26 166.70-46.29Q166.42-46.31 166.14-46.36L166.14-46.36Q165.90-45.98 165.53-45.87Q165.15-45.75 164.82-45.47L164.82-45.47Q164.68-45.05 164.66-44.44Q164.64-43.83 164.61-43.19Q164.59-42.56 164.50-42.00Q164.40-41.44 164.12-41.11L164.12-41.11Q164.17-40.87 164.50-40.94Q164.82-41.01 164.82-40.64L164.82-40.64Q164.82-40.22 164.73-39.75Q164.64-39.28 164.64-38.81L164.64-38.81Q164.64-37.92 164.85-36.87Q165.06-35.81 165.50-34.92Q165.95-34.03 166.70-33.44Q167.45-32.86 168.57-32.86L168.57-32.86Q169.32-32.86 169.98-33.14Q170.64-33.42 171.06-34.08L171.06-34.08L171.29-34.12Q171.48-34.12 171.64-34.08Q171.81-34.03 172.00-34.03L172.00-34.03Q172.28-34.03 172.72-34.38Q173.17-34.73 173.71-35.20Q174.25-35.67 174.81-36.12Q175.37-36.56 175.89-36.75L175.89-36.75Q176.21-37.41 176.52-38.06Q176.82-38.72 177.43-39.09L177.43-39.09L177.43-40.45Q177.90-40.97 178.44-41.39Q178.98-41.81 179.26-42.47L179.26-42.47Q179.50-42.37 179.71-42.33Q179.92-42.28 180.15-42.28L180.15-42.28Q180.39-42.28 180.64-42.33Q180.90-42.37 181.14-42.47L181.14-42.47Q181.51-41.95 181.72-41.32Q181.93-40.69 182.26-40.12L182.26-40.12Q181.84-39.28 181.28-38.11Q180.71-36.94 180.06-35.76Q179.40-34.59 178.68-33.54Q177.95-32.48 177.25-31.92L177.25-31.92Q177.11-31.78 176.64-31.59L176.64-31.59Q176.12-31.22 175.70-30.87Q175.28-30.51 174.90-30.05L174.90-30.05Q173.54-29.62 172.30-28.92Q171.06-28.22 169.84-27.56L169.84-27.56Q169.28-27.70 168.62-27.70L168.62-27.70Q168.06-27.70 167.50-27.63Q166.93-27.56 166.28-27.56L166.28-27.56Q166.09-27.80 165.74-27.87Q165.39-27.94 165.48-28.36L165.48-28.36Q163.89-28.45 162.90-29.23Q161.92-30.00 161.24-31.12Q160.56-32.25 160.14-33.56Q159.71-34.87 159.25-36.09L159.25-36.09L159.25-36.23Q159.25-36.47 159.43-36.51Q159.62-36.56 159.62-36.80L159.62-36.80Q159.62-36.89 159.57-36.94L159.57-36.94Q159.43-37.45 159.34-37.83Q159.25-38.20 159.25-38.72L159.25-38.72Q159.25-39.47 159.34-40.19Q159.43-40.92 159.43-41.67L159.43-41.67Q159.43-42.42 159.25-42.98L159.25-42.98Q159.43-43.22 159.55-43.62Q159.67-44.01 159.71-44.44Q159.76-44.86 159.78-45.28Q159.81-45.70 159.90-46.03L159.90-46.03Q159.71-46.55 159.57-46.94Q159.43-47.34 159.43-47.91L159.43-47.91L159.43-48.23Q159.90-49.03 160.23-49.87Q160.56-50.72 160.93-51.61L160.93-51.61L160.93-51.75Q160.93-53.11 160.84-54.47Q160.75-55.83 160.75-57.19L160.75-57.19L160.75-58.08Q160.75-58.55 160.79-58.97L160.79-58.97Q161.17-59.16 161.36-59.48Q161.54-59.81 161.92-60.00L161.92-60.00L163.46-60.00L163.75-60.47Q163.89-60.70 163.93-60.98L163.93-60.98Q164.45-61.12 164.94-61.38Q165.43-61.64 165.86-61.92L165.86-61.92Q166.51-62.30 167.05-62.60Q167.59-62.91 168.13-63.12Q168.67-63.33 169.28-63.47Q169.89-63.61 170.68-63.70L170.68-63.70Q171.06-63.70 171.18-63.84Q171.29-63.98 171.53-64.17L171.53-64.17Q172.09-64.08 172.65-64.01Q173.21-63.94 173.78-63.94L173.78-63.94Q174.90-63.94 175.89-64.36L175.89-64.36Q177.29-64.36 178.68-64.41Q180.06-64.45 181.46-64.45L181.46-64.45Q182.68-64.45 183.90-64.36Q185.12-64.26 186.29-64.03L186.29-64.03Q186.71-64.17 187.23-64.17L187.23-64.17Q187.79-64.17 188.38-64.05Q188.96-63.94 189.53-64.03L189.53-64.03Q189.57-63.51 189.78-63.16Q190.00-62.81 190.00-62.34ZM247.70-40.69L247.70-40.69Q247.61-39.98 247.21-39.61Q246.81-39.23 246.29-38.91L246.29-38.91Q246.06-38.95 245.85-38.98Q245.64-39.00 245.40-39.00L245.40-39.00Q243.95-39.05 242.66-38.62Q241.37-38.20 240.01-38.01L240.01-38.01Q239.54-37.92 239.14-37.94Q238.75-37.97 238.32-37.87L238.32-37.87Q236.82-37.64 235.14-37.50Q233.45-37.36 231.76-37.15Q230.07-36.94 228.46-36.63Q226.84-36.33 225.43-35.76L225.43-35.76Q225.29-35.86 225.15-35.98Q225.01-36.09 224.82-36.09L224.82-36.09Q224.36-36.09 223.93-35.95Q223.51-35.81 223.09-35.86L223.09-35.86Q222.62-35.58 222.08-35.46Q221.54-35.34 221.00-35.27Q220.46-35.20 219.95-35.06Q219.43-34.92 218.96-34.55L218.96-34.55Q218.59-34.73 218.05-34.76Q217.51-34.78 217.32-35.11L217.32-35.11Q216.25-34.59 215.05-34.45Q213.86-34.31 212.64-34.36L212.64-34.36Q211.84-34.41 210.81-34.59Q209.78-34.78 208.75-35.13Q207.71-35.48 206.82-35.98Q205.93-36.47 205.46-37.17L205.46-37.17Q205.14-37.64 205.00-38.20Q204.86-38.76 204.34-39.05L204.34-39.05Q204.48-40.12 204.67-41.16Q204.86-42.19 205.04-43.26L205.04-43.26Q205.98-44.06 206.82-44.95Q207.67-45.84 208.42-46.83L208.42-46.83Q209.31-47.25 210.08-47.86Q210.86-48.47 211.63-49.10Q212.40-49.73 213.18-50.34Q213.95-50.95 214.84-51.42L214.84-51.42Q214.98-51.75 215.24-51.96Q215.50-52.17 215.78-52.38Q216.06-52.59 216.29-52.85Q216.53-53.11 216.62-53.48L216.62-53.48Q218.26-54.47 219.48-55.97Q220.70-57.47 221.07-59.34L221.07-59.34Q220.28-60.00 219.27-60.21Q218.26-60.42 217.18-60.51L217.18-60.51Q216.25-60.56 215.24-60.51Q214.23-60.47 213.20-60.56L213.20-60.56Q212.17-60.23 211.07-60.14Q209.96-60.05 208.89-59.98Q207.81-59.91 206.75-59.69Q205.70-59.48 204.71-58.92L204.71-58.92Q204.53-58.92 204.36-58.97Q204.20-59.01 204.01-59.01L204.01-59.01Q202.51-59.06 201.20-58.43Q199.89-57.80 198.62-57.19L198.62-57.19Q198.53-57.00 198.53-56.91L198.53-56.91Q198.53-56.62 198.64-56.37Q198.76-56.11 198.76-55.83L198.76-55.83Q198.71-55.78 198.71-55.73Q198.71-55.69 198.67-55.64L198.67-55.64Q198.62-55.41 198.55-55.22Q198.48-55.03 198.39-54.80L198.39-54.80Q197.87-53.30 197.82-51.84L197.82-51.84Q197.78-50.62 197.82-49.45Q197.87-48.28 197.82-47.06L197.82-47.06Q197.73-45.56 197.36-44.25L197.36-44.25Q197.59-43.12 197.78-41.88Q197.96-40.64 198.25-39.42Q198.53-38.20 198.93-37.05Q199.32-35.91 199.98-34.87L199.98-34.87Q199.93-34.78 200.03-34.73Q200.12-34.69 200.21-34.69L200.21-34.69L200.59-34.69Q200.82-34.69 200.78-34.50L200.78-34.50Q200.87-34.36 200.92-34.24Q200.96-34.12 201.11-34.03L201.11-34.03Q201.20-33.89 201.11-33.66L201.11-33.66Q201.06-32.72 200.64-31.92Q200.21-31.12 200.12-30.19L200.12-30.19Q199.56-30.05 199.09-30.05L199.09-30.05Q198.29-30.09 197.68-30.49Q197.07-30.89 196.56-31.45Q196.04-32.01 195.57-32.60Q195.11-33.19 194.54-33.61L194.54-33.61Q194.21-34.92 193.91-36.51Q193.61-38.11 192.90-39.23L192.90-39.23Q193.09-39.66 193.09-40.26L193.09-40.26Q193.14-41.20 192.93-42.12Q192.71-43.03 192.81-43.97L192.81-43.97Q192.81-44.48 192.93-45.00Q193.04-45.51 193.09-46.03L193.09-46.03Q193.14-46.83 192.93-47.58Q192.71-48.33 192.76-49.12L192.76-49.12Q192.81-49.50 192.93-49.85Q193.04-50.20 193.28-50.48L193.28-50.48Q193.04-51.05 193.14-51.56L193.14-51.56Q193.18-52.36 193.32-53.06Q193.46-53.76 193.51-54.47L193.51-54.47Q193.51-54.84 193.46-55.19Q193.42-55.55 193.32-55.87L193.32-55.87L192.90-56.01Q192.62-56.01 192.36-55.87Q192.11-55.73 191.92-55.55Q191.73-55.36 191.59-55.24Q191.45-55.12 191.31-55.12L191.31-55.12Q191.21-55.12 191.10-55.15Q190.98-55.17 190.89-55.17L190.89-55.17Q190.79-55.17 190.53-54.98Q190.28-54.80 189.93-54.59Q189.57-54.37 189.25-54.16Q188.92-53.95 188.73-53.91L188.73-53.91Q188.21-54.00 187.91-54.26Q187.61-54.51 187.35-54.77Q187.09-55.03 186.81-55.24Q186.53-55.45 186.11-55.41L186.11-55.41Q185.96-55.69 185.94-56.01Q185.92-56.34 185.96-56.67L185.96-56.67L185.96-57.42Q186.29-58.03 186.83-58.43Q187.37-58.83 187.98-59.11L187.98-59.11L189.20-59.67Q189.81-59.95 190.32-60.37L190.32-60.37L190.75-60.37Q191.59-60.33 192.22-60.70Q192.86-61.08 193.42-61.57Q193.98-62.06 194.57-62.58Q195.15-63.09 195.86-63.37L195.86-63.37Q196.37-63.14 196.93-62.98Q197.50-62.81 198.11-62.76L198.11-62.76Q198.71-62.76 199.37-62.95Q200.03-63.14 200.40-63.66L200.40-63.66Q200.64-63.56 200.80-63.54Q200.96-63.51 201.20-63.51L201.20-63.51Q201.90-63.47 202.61-63.73Q203.31-63.98 203.96-64.36L203.96-64.36Q204.90-64.31 205.82-64.48Q206.73-64.64 207.64-64.83Q208.56-65.01 209.47-65.18Q210.39-65.34 211.32-65.30L211.32-65.30Q212.87-65.25 214.37-65.58Q215.87-65.91 217.42-65.81L217.42-65.81Q218.50-65.76 219.55-65.65Q220.61-65.53 221.68-65.58L221.68-65.58Q222.29-65.30 222.78-65.09Q223.28-64.87 224.03-64.97L224.03-64.97Q225.53-63.70 226.75-62.01L226.75-62.01L226.75-61.22Q226.70-60.14 226.37-59.11Q226.04-58.08 225.60-57.07Q225.15-56.06 224.64-55.10Q224.12-54.14 223.65-53.20L223.65-53.20Q220.61-50.44 217.56-47.72Q214.51-45.00 211.28-42.47L211.28-42.47Q211.18-42.00 211.02-41.62Q210.86-41.25 210.81-40.83L210.81-40.83Q210.81-40.59 210.86-40.45L210.86-40.45Q211.18-40.36 211.44-40.10Q211.70-39.84 211.61-39.42L211.61-39.42L212.03-39.42Q212.26-39.42 212.26-39.23L212.26-39.23L213.01-39.19Q214.79-39.09 216.57-39.28Q218.36-39.47 220.16-39.70Q221.96-39.94 223.75-40.15Q225.53-40.36 227.31-40.41L227.31-40.41Q227.73-40.55 228.20-40.64Q228.67-40.73 229.04-41.01L229.04-41.01L229.18-41.01Q229.51-41.01 229.68-40.83Q229.84-40.64 230.17-40.59L230.17-40.59Q230.40-40.59 230.66-40.69Q230.92-40.78 231.20-40.83L231.20-40.83Q231.86-41.01 232.58-41.06Q233.31-41.11 234.01-41.20L234.01-41.20Q236.73-41.44 239.40-41.51Q242.07-41.58 244.75-42.19L244.75-42.19Q244.98-41.86 245.40-41.74Q245.82-41.62 246.29-41.51Q246.76-41.39 247.16-41.25Q247.56-41.11 247.70-40.69ZM297.76-49.08L297.76-49.08L297.76-48.75Q297.76-48.61 297.71-48.47L297.71-48.47Q297.20-47.48 296.45-46.97Q295.70-46.45 294.57-46.45L294.57-46.45Q293.82-46.45 293.47-46.59Q293.12-46.73 292.56-47.11L292.56-47.11Q291.71-47.01 290.64-46.94Q289.56-46.87 288.48-46.71Q287.40-46.55 286.44-46.26Q285.48-45.98 284.82-45.42L284.82-45.42Q284.40-42.19 284.38-38.98Q284.36-35.76 284.26-32.53L284.26-32.53Q284.64-31.55 284.78-30.35Q284.92-29.16 284.96-28.17L284.96-28.17Q285.29-27.61 285.48-27.02Q285.67-26.44 285.86-25.83Q286.04-25.22 286.30-24.66Q286.56-24.09 286.98-23.62L286.98-23.62Q287.36-23.62 287.66-23.55Q287.96-23.48 288.29-23.39L288.29-23.39L288.29-23.11Q288.29-22.41 288.71-22.08Q289.14-21.75 289.65-21.37L289.65-21.37Q289.79-20.86 289.79-20.39L289.79-20.39Q289.79-19.59 289.44-18.89Q289.09-18.19 288.29-17.91L288.29-17.91Q287.82-17.91 287.40-18.02Q286.98-18.14 286.51-18.14L286.51-18.14Q286.18-18.14 285.81-18.05L285.81-18.05Q285.57-18.14 285.41-18.30Q285.25-18.47 285.06-18.61Q284.87-18.75 284.66-18.84Q284.45-18.94 284.12-18.89L284.12-18.89Q283.89-19.55 283.37-20.11Q282.86-20.67 282.11-20.58L282.11-20.58Q282.15-20.76 282.15-21.14L282.15-21.14Q282.15-21.80 281.89-22.36Q281.64-22.92 281.12-23.25L281.12-23.25Q280.89-24.33 280.70-25.62Q280.51-26.91 279.90-27.84L279.90-27.84Q279.90-29.20 279.62-30.44Q279.34-31.69 279.11-33.00L279.11-33.00Q279.29-33.75 279.29-34.69L279.29-34.69Q279.29-35.34 279.25-35.98Q279.20-36.61 279.20-37.22L279.20-37.22Q279.20-37.87 279.29-38.51Q279.39-39.14 279.76-39.75L279.76-39.75Q279.48-40.22 279.39-40.71Q279.29-41.20 279.29-41.72L279.29-41.72Q279.29-42.51 279.39-43.26L279.39-43.26L279.57-44.76Q279.48-44.81 279.25-44.81L279.25-44.81Q278.78-44.81 278.45-44.62L278.45-44.62L277.75-44.30Q277.51-44.34 277.32-44.34L277.32-44.34L276.90-44.34Q276.20-44.34 275.52-44.13Q274.84-43.92 274.32-43.41L274.32-43.41Q272.73-43.41 271.14-43.10Q269.54-42.80 267.97-42.37Q266.40-41.95 264.86-41.46Q263.31-40.97 261.76-40.59L261.76-40.59Q261.39-38.76 261.20-36.91Q261.01-35.06 261.01-33.14L261.01-33.14L261.01-32.01Q261.01-31.41 261.11-30.84L261.11-30.84Q261.15-30.47 261.36-30.16Q261.57-29.86 261.57-29.48L261.57-29.48Q261.57-29.16 261.43-28.97L261.43-28.97Q261.76-28.41 262.42-27.98L262.42-27.98Q263.12-28.22 263.64-28.22L263.64-28.22Q264.48-28.22 265.23-27.82Q265.98-27.42 266.82-27.28L266.82-27.28Q266.64-26.62 266.26-25.99Q265.89-25.36 265.79-24.61L265.79-24.61Q265.61-24.51 265.44-24.51Q265.28-24.51 265.14-24.49Q265.00-24.47 264.93-24.33Q264.86-24.19 264.95-23.76L264.95-23.76Q264.29-23.44 263.64-23.32Q262.98-23.20 262.30-23.16Q261.62-23.11 260.94-23.11Q260.26-23.11 259.56-23.06L259.56-23.06Q259.56-23.34 259.44-23.51Q259.32-23.67 259.14-23.74Q258.95-23.81 258.74-23.91Q258.53-24.00 258.39-24.14L258.39-24.14Q258.01-24.47 257.80-25.01Q257.59-25.55 257.38-26.13Q257.17-26.72 256.93-27.28Q256.70-27.84 256.37-28.31L256.37-28.31Q256.28-29.34 256.23-30.33Q256.18-31.31 256.18-32.34L256.18-32.34Q256.18-34.26 256.32-36.12Q256.46-37.97 256.56-39.94L256.56-39.94Q256.14-40.36 255.60-40.31Q255.06-40.26 254.54-40.41L254.54-40.41Q253.98-41.11 253.61-41.98Q253.23-42.84 253.23-43.78L253.23-43.78Q253.23-44.25 253.37-44.76L253.37-44.76Q253.79-44.91 254.31-45.05Q254.82-45.19 254.87-45.80L254.87-45.80Q255.20-45.61 255.67-45.61L255.67-45.61Q256.14-45.61 256.61-45.75Q257.07-45.89 257.54-45.98L257.54-45.98Q257.73-46.73 257.85-47.46Q257.96-48.19 257.87-48.98L257.87-48.98Q258.53-49.97 258.74-51.14Q258.95-52.31 259.04-53.39L259.04-53.39L259.04-54.05Q259.04-54.37 259.09-54.70L259.09-54.70Q259.18-55.22 259.37-55.87Q259.56-56.53 259.70-57.09L259.70-57.09Q259.93-57.98 260.00-58.78Q260.07-59.58 260.07-60.42L260.07-60.42L260.07-60.61Q260.07-60.84 259.89-60.96Q259.70-61.08 259.70-61.31L259.70-61.31L259.75-61.41Q259.93-62.91 260.19-64.38Q260.45-65.86 260.92-67.31L260.92-67.31Q260.54-68.39 260.54-69.75L260.54-69.75Q260.54-71.53 261.11-73.17L261.11-73.17Q260.82-73.92 260.82-74.62L260.82-74.62Q260.82-75.19 260.89-75.75Q260.96-76.31 260.92-76.87L260.92-76.87Q261.39-77.11 261.69-77.53Q262.00-77.95 262.42-78.23L262.42-78.23Q263.82-78.28 264.78-77.30Q265.75-76.31 265.75-74.91L265.75-74.91Q265.75-73.83 265.14-72.84L265.14-72.84Q265.32-71.95 265.32-70.78L265.32-70.78Q265.32-69.05 265.09-67.31Q264.86-65.58 264.95-63.80L264.95-63.80Q264.67-63.14 264.69-62.20Q264.71-61.26 264.62-60.61L264.62-60.61Q264.53-59.95 264.34-59.27Q264.15-58.59 264.11-57.94L264.11-57.94Q264.06-56.86 264.03-55.78Q264.01-54.70 263.78-53.72L263.78-53.72Q263.68-53.34 263.52-53.09Q263.36-52.83 263.26-52.50L263.26-52.50Q263.07-51.51 263.14-50.51Q263.21-49.50 263.12-48.47L263.12-48.47Q263.07-48.14 262.96-47.81Q262.84-47.48 262.84-47.11L262.84-47.11Q262.84-46.92 262.93-46.64L262.93-46.64Q267.20-47.01 271.42-47.91Q275.64-48.80 279.90-49.45L279.90-49.45Q280.23-50.06 280.23-50.72L280.23-50.72Q280.23-51.09 280.09-51.47L280.09-51.47Q280.56-53.01 280.82-54.59Q281.07-56.16 281.26-57.70Q281.45-59.25 281.59-60.82Q281.73-62.39 281.96-63.94L281.96-63.94L282.25-65.53Q282.39-66.33 282.62-67.08L282.62-67.08Q282.71-67.36 282.83-67.64Q282.95-67.92 282.95-68.16L282.95-68.16Q282.95-68.39 282.69-68.48Q282.43-68.58 282.43-68.72L282.43-68.72Q282.43-68.81 282.50-68.84Q282.57-68.86 282.62-68.81L282.62-68.81Q282.86-69.23 282.90-69.70Q282.95-70.17 282.97-70.64Q283.00-71.11 283.09-71.55Q283.18-72.00 283.46-72.37L283.46-72.37Q283.42-72.70 283.28-72.98Q283.14-73.26 283.14-73.64L283.14-73.64Q283.09-73.69 283.14-73.73L283.14-73.73Q283.23-74.16 283.25-74.46Q283.28-74.76 283.28-75.19L283.28-75.19Q283.28-75.75 283.79-76.08L283.79-76.08Q283.56-76.87 283.46-77.81Q283.37-78.75 283.37-79.64L283.37-79.64Q283.37-80.86 283.96-81.68Q284.54-82.50 285.90-82.50L285.90-82.50Q286.61-82.50 287.24-82.22Q287.87-81.94 288.29-81.42L288.29-81.42Q288.53-80.34 288.53-79.41L288.53-79.41Q288.53-78.75 288.46-78.16Q288.39-77.58 288.39-76.92L288.39-76.92Q288.39-76.41 288.48-75.96Q288.57-75.51 288.67-75.05L288.67-75.05Q288.25-74.39 288.06-73.59Q287.87-72.80 287.80-71.95Q287.73-71.11 287.71-70.24Q287.68-69.37 287.64-68.67L287.64-68.67Q287.50-67.12 287.19-65.62Q286.89-64.12 286.51-62.62L286.51-62.62Q286.65-62.11 286.65-61.69L286.65-61.69Q286.65-60.84 286.42-60.02Q286.18-59.20 286.28-58.41L286.28-58.41Q285.95-57.56 285.86-56.69Q285.76-55.83 285.71-54.89L285.71-54.89L285.62-53.06Q285.57-52.17 285.29-51.33L285.29-51.33Q285.39-51.09 285.64-51.07Q285.90-51.05 285.81-50.67L285.81-50.67Q286.89-51.00 288.11-50.98Q289.32-50.95 290.40-50.95L290.40-50.95Q291.11-50.95 291.81-50.98Q292.51-51.00 293.21-51.14L293.21-51.14Q293.92-51.33 294.64-51.59Q295.37-51.84 296.07-51.84L296.07-51.84Q297.06-51.84 297.57-51.14L297.57-51.14Q297.67-50.62 297.71-50.11Q297.76-49.59 297.76-49.08ZM327.11-59.67L327.11-59.67Q326.82-59.25 326.78-58.73Q326.73-58.22 326.73-57.80L326.73-57.80Q326.73-57.23 326.75-56.69Q326.78-56.16 326.78-55.64L326.78-55.64L326.78-54.94Q326.68-54.61 326.50-54.28Q326.31-53.95 326.21-53.62L326.21-53.62Q325.56-51.89 325.56-50.16L325.56-50.16L325.56-50.06Q325.32-49.50 325.11-49.03Q324.90-48.56 324.71-48.12Q324.53-47.67 324.43-47.18Q324.34-46.69 324.39-46.03L324.39-46.03Q323.73-44.39 322.65-43.05Q321.57-41.72 320.54-40.31L320.54-40.31Q319.56-39.94 318.74-39.33Q317.92-38.72 317.17-37.97L317.17-37.97Q315.71-37.50 314.31-36.89Q312.90-36.28 311.78-35.25L311.78-35.25Q310.89-35.16 310.00-34.97Q309.11-34.78 308.26-34.41L308.26-34.41L307.70-34.41Q307.28-34.41 307.09-34.59L307.09-34.59Q306.48-34.26 305.82-34.15Q305.17-34.03 304.51-34.03L304.51-34.03Q303.67-34.03 302.85-34.15Q302.03-34.26 301.18-34.41L301.18-34.41Q300.71-35.06 299.87-35.41Q299.03-35.76 298.37-36.09L298.37-36.09Q297.01-37.97 296.40-39.73Q295.79-41.48 295.14-43.69L295.14-43.69Q295.23-44.34 295.46-44.98Q295.70-45.61 295.65-46.36L295.65-46.36Q296.50-48.80 297.88-50.79Q299.26-52.78 301.04-54.61L301.04-54.61Q301.04-54.89 301.16-55.08Q301.28-55.26 301.18-55.64L301.18-55.64Q301.23-55.59 301.37-55.59L301.37-55.59Q301.75-55.59 301.84-55.80Q301.93-56.01 301.89-56.30L301.89-56.30Q303.57-57.37 304.96-58.78Q306.34-60.19 308.12-61.12L308.12-61.12Q308.26-61.55 308.59-61.83Q308.92-62.11 309.11-62.48L309.11-62.48Q310.61-62.91 311.82-63.75Q313.04-64.59 314.40-65.25L314.40-65.25Q315.15-65.67 315.83-65.84Q316.51-66.00 317.31-66.19L317.31-66.19Q317.59-66.28 317.82-66.33Q318.06-66.37 318.34-66.37L318.34-66.37Q319.18-66.37 319.98-66.07Q320.78-65.76 321.62-65.76L321.62-65.76Q321.86-65.76 322.02-65.79Q322.18-65.81 322.37-65.86L322.37-65.86Q323.17-64.87 324.39-64.36L324.39-64.36Q324.67-63.66 325.07-63.14Q325.46-62.62 325.89-62.13Q326.31-61.64 326.66-61.05Q327.01-60.47 327.11-59.67ZM322.42-57.23L322.42-57.23Q322.42-57.47 322.37-57.66L322.37-57.66Q321.90-57.80 321.48-58.03Q321.06-58.26 320.54-58.26L320.54-58.26Q320.21-58.26 319.89-58.12L319.89-58.12Q319.84-58.45 319.63-58.59Q319.42-58.73 319.16-58.85Q318.90-58.97 318.64-59.04Q318.39-59.11 318.20-59.30L318.20-59.30Q318.06-59.67 317.89-60.07Q317.73-60.47 317.31-60.66L317.31-60.66Q316.89-60.23 316.32-59.98Q315.76-59.72 315.18-59.48Q314.59-59.25 314.05-58.92Q313.51-58.59 313.14-58.12L313.14-58.12L312.29-58.12Q312.01-57.61 311.50-57.35Q310.98-57.09 310.61-56.62L310.61-56.62Q309.86-56.25 309.22-55.71Q308.59-55.17 307.98-54.59Q307.37-54.00 306.78-53.39Q306.20-52.78 305.54-52.26L305.54-52.26Q304.93-50.95 304.21-49.99Q303.48-49.03 302.85-48.05Q302.21-47.06 301.77-45.91Q301.32-44.76 301.32-43.08L301.32-43.08L301.32-42.61Q301.32-42.37 301.37-42.14L301.37-42.14Q301.98-41.48 302.38-40.73Q302.78-39.98 303.71-39.66L303.71-39.66Q304.65-39.28 305.71-39.33Q306.76-39.37 307.75-39.09L307.75-39.09Q310.00-39.51 312.08-40.48Q314.17-41.44 316.04-42.80L316.04-42.80Q316.32-43.03 316.70-43.29Q317.07-43.55 317.31-43.83L317.31-43.83Q317.54-44.06 317.71-44.34Q317.87-44.62 318.06-44.86L318.06-44.86Q318.43-45.47 318.90-46.08Q319.37-46.69 319.89-47.20L319.89-47.20Q320.12-48.23 320.50-49.19Q320.87-50.16 321.25-51.09Q321.62-52.03 321.88-53.01Q322.14-54.00 322.14-55.08L322.14-55.08Q322.14-55.31 322.11-55.59Q322.09-55.87 322.04-56.11L322.04-56.11Q322.42-56.62 322.42-57.23ZM355.89-44.58L355.89-44.58Q355.89-44.06 355.51-43.80Q355.14-43.55 355.14-43.12L355.14-43.12Q355.14-42.94 355.32-42.66L355.32-42.66Q354.67-42.66 354.43-42.23Q354.20-41.81 353.96-41.30L353.96-41.30L353.36-41.30Q353.12-41.30 352.98-41.20Q352.84-41.11 352.72-40.94Q352.61-40.78 352.42-40.45L352.42-40.45Q351.53-40.26 350.71-39.87Q349.89-39.47 349.11-39.02Q348.34-38.58 347.54-38.13Q346.75-37.69 345.90-37.41L345.90-37.41Q345.48-36.70 344.68-36.28L344.68-36.28L344.54-36.28Q344.31-36.23 344.14-36.35Q343.98-36.47 343.75-36.47L343.75-36.47Q343.61-36.47 343.56-36.42L343.56-36.42Q342.15-35.48 340.42-35.48L340.42-35.48Q339.95-35.48 339.53-35.55Q339.11-35.62 338.64-35.62L338.64-35.62Q338.50-35.62 338.45-35.53L338.45-35.53L338.36-35.34Q338.31-35.25 338.24-35.16Q338.17-35.06 337.89-35.06L337.89-35.06Q337.37-35.06 336.86-35.20Q336.34-35.34 335.78-35.25L335.78-35.25Q334.70-35.86 334.09-36.42Q333.48-36.98 332.96-38.11L332.96-38.11Q332.73-38.62 332.33-39.09Q331.93-39.56 331.75-40.12L331.75-40.12Q331.70-40.31 331.61-40.80Q331.51-41.30 331.42-41.86Q331.32-42.42 331.25-42.94Q331.18-43.45 331.18-43.64L331.18-43.64Q331.18-44.20 331.25-44.74Q331.32-45.28 331.42-45.84L331.42-45.84Q331.70-47.62 331.82-49.43Q331.93-51.23 332.59-52.92L332.59-52.92Q332.50-53.44 332.50-53.91L332.50-53.91L332.50-54.94Q332.50-55.83 332.26-56.44L332.26-56.44Q332.64-57.05 332.64-57.80L332.64-57.80Q332.64-58.64 331.93-58.78L331.93-58.78L331.93-58.92Q331.93-59.91 331.28-60.47L331.28-60.47Q331.28-62.11 332.10-62.93Q332.92-63.75 334.28-64.36L334.28-64.36Q334.46-64.64 334.42-64.83L334.42-64.83Q334.75-64.73 335.03-64.64Q335.31-64.55 335.59-64.55L335.59-64.55Q336.06-64.55 336.43-64.69L336.43-64.69Q336.57-64.12 337.16-64.01Q337.75-63.89 338.12-63.70L338.12-63.70L338.12-63.09Q338.12-61.64 338.82-60.33L338.82-60.33Q338.64-59.95 338.59-59.53Q338.54-59.11 338.54-58.73L338.54-58.73Q338.54-58.17 338.59-57.61Q338.64-57.05 338.64-56.53L338.64-56.53Q338.64-55.97 338.52-55.41Q338.40-54.84 337.98-54.42L337.98-54.42Q337.93-53.81 337.91-53.04Q337.89-52.26 337.82-51.47Q337.75-50.67 337.56-49.92Q337.37-49.17 337.00-48.70L337.00-48.70Q336.95-48.00 336.93-47.27Q336.90-46.55 336.90-45.89L336.90-45.89Q336.90-44.86 337.02-43.45Q337.14-42.05 337.65-41.11L337.65-41.11Q337.89-40.73 338.57-40.55Q339.25-40.36 339.67-40.36L339.67-40.36Q340.18-40.36 340.72-40.52Q341.26-40.69 341.50-41.11L341.50-41.11Q341.78-41.06 341.87-40.83Q341.96-40.59 342.20-40.45L342.20-40.45Q344.87-41.58 347.54-42.61Q350.21-43.64 352.79-45.00L352.79-45.00Q353.17-44.81 353.59-44.81L353.59-44.81Q354.06-44.81 354.53-44.91Q355.00-45.00 355.46-45.00L355.46-45.00L355.79-45.00Q355.89-44.72 355.89-44.58ZM391.93-62.67L392.07-62.67Q391.89-62.06 391.46-61.55L391.46-61.55L390.67-60.56Q390.29-60.09 390.03-59.55Q389.78-59.01 389.87-58.31L389.87-58.31Q389.78-58.31 389.64-58.34Q389.50-58.36 389.40-58.36L389.40-58.36Q388.65-58.36 388.25-58.01Q387.86-57.66 387.20-57.42L387.20-57.42Q387.11-57.70 386.96-57.96Q386.82-58.22 386.54-58.31L386.54-58.31Q385.42-58.08 384.29-57.96Q383.17-57.84 382.04-57.66L382.04-57.66Q381.53-57.56 381.01-57.40Q380.50-57.23 379.93-57.09L379.93-57.09Q379.65-57.00 379.32-57.02Q379.00-57.05 378.67-57.00L378.67-57.00Q377.54-56.95 376.23-56.84Q374.92-56.72 373.89-56.11L373.89-56.11Q373.42-56.20 372.90-56.25Q372.39-56.30 371.87-56.30L371.87-56.30Q370.75-56.30 369.41-56.09Q368.07-55.87 367.04-55.26L367.04-55.26Q366.81-55.36 366.55-55.41Q366.29-55.45 365.96-55.45L365.96-55.45Q365.87-55.45 365.82-55.43Q365.78-55.41 365.68-55.41L365.68-55.41Q365.64-54.98 365.80-54.59Q365.96-54.19 366.39-53.95L366.39-53.95Q366.20-53.44 366.20-52.83L366.20-52.83Q366.20-52.03 366.32-51.23Q366.43-50.44 366.43-49.64L366.43-49.64Q366.43-48.75 366.20-48.23L366.20-48.23Q366.67-46.83 366.67-45.23L366.67-45.23Q366.67-44.67 366.60-44.13Q366.53-43.59 366.53-42.98L366.53-42.98Q366.53-42.47 366.90-42.16Q367.28-41.86 367.28-41.34L367.28-41.34Q367.28-41.16 367.18-40.97L367.18-40.97Q367.84-41.11 368.45-41.37Q369.06-41.62 369.71-41.62L369.71-41.62Q370.09-41.62 370.44-41.48Q370.79-41.34 371.07-41.11L371.07-41.11Q371.03-40.87 371.00-40.59Q370.98-40.31 370.98-40.03L370.98-40.03Q370.98-39.51 371.00-39.07Q371.03-38.62 371.07-38.11L371.07-38.11Q370.70-37.45 370.21-36.94Q369.71-36.42 369.53-35.62L369.53-35.62Q368.82-35.62 368.28-35.32Q367.75-35.01 367.28-34.66Q366.81-34.31 366.34-34.01Q365.87-33.70 365.31-33.70L365.31-33.70Q364.61-33.70 364.32-33.91Q364.04-34.12 363.90-34.36Q363.76-34.59 363.64-34.78Q363.53-34.97 363.15-34.92L363.15-34.92Q363.06-35.53 362.78-36.07Q362.50-36.61 362.19-37.12Q361.89-37.64 361.58-38.18Q361.28-38.72 361.14-39.28L361.14-39.28Q360.86-40.50 360.90-41.81Q360.95-43.12 360.48-44.34L360.48-44.34Q360.57-45.00 360.62-45.68Q360.67-46.36 360.67-47.01L360.67-47.01Q360.67-48.33 360.60-49.62Q360.53-50.91 360.48-52.26L360.48-52.26Q360.15-52.69 360.08-53.23Q360.01-53.76 359.96-54.28L359.96-54.28Q359.82-54.42 359.66-54.56Q359.50-54.70 359.45-54.94L359.45-54.94Q359.07-55.03 358.89-55.03L358.89-55.03Q358.23-55.03 357.78-54.73Q357.34-54.42 356.96-54.42L356.96-54.42Q356.59-54.42 356.26-54.51Q355.93-54.61 355.61-54.61L355.61-54.61Q355.32-54.61 355.30-54.49Q355.28-54.37 355.09-54.28L355.09-54.28Q354.95-54.19 354.43-54.09Q353.92-54.00 353.28-53.93Q352.65-53.86 352.07-53.81Q351.48-53.76 351.29-53.76L351.29-53.76Q350.54-53.76 350.14-54.07Q349.75-54.37 349.18-54.75L349.18-54.75Q349.28-55.03 349.28-55.12L349.28-55.12Q349.28-55.59 349.00-55.90Q348.71-56.20 348.71-56.44L348.71-56.44Q348.71-56.95 349.11-57.23Q349.51-57.51 349.56-58.12L349.56-58.12Q350.64-58.59 351.76-58.83Q352.89-59.06 354.06-59.20Q355.23-59.34 356.38-59.53Q357.53-59.72 358.65-60.14L358.65-60.14Q358.98-60.09 359.28-60.07Q359.59-60.05 359.92-60.05L359.92-60.05Q361.32-60.05 362.71-60.35Q364.09-60.66 365.54-60.66L365.54-60.66Q365.92-60.66 366.29-60.61Q366.67-60.56 367.04-60.47L367.04-60.47Q368.92-60.75 370.77-61.08Q372.62-61.41 374.59-61.64L374.59-61.64Q375.53-61.73 376.44-61.80Q377.36-61.87 378.29-62.01L378.29-62.01Q378.62-62.06 378.78-62.18Q378.95-62.30 378.95-62.67L378.95-62.67Q379.37-62.48 379.89-62.48L379.89-62.48Q380.68-62.48 381.43-62.76Q382.18-63.05 382.98-63.05L382.98-63.05Q383.17-63.05 383.31-63.02Q383.45-63.00 383.59-63.00L383.59-63.00Q383.92-63.00 383.94-63.30Q383.96-63.61 384.39-63.70L384.39-63.70Q384.71-63.80 385.32-63.84Q385.93-63.89 386.61-63.96Q387.29-64.03 387.88-64.15Q388.46-64.26 388.75-64.50L388.75-64.50L389.07-65.01Q389.92-64.97 390.32-64.29Q390.71-63.61 390.76-62.81L390.76-62.81Q390.95-62.62 391.30-62.65Q391.65-62.67 391.93-62.67L391.93-62.67Z"></path></g></g></svg>